<?xml version="1.0" encoding="UTF-8"?>
<svg xmlns="http://www.w3.org/2000/svg" xmlns:xlink="http://www.w3.org/1999/xlink" width="469pt" height="225pt" viewBox="0 0 469 225" version="1.1">
<g id="surface1">
<path style="fill-rule:nonzero;fill:rgb(69.803922%,85.098039%,100%);fill-opacity:1;stroke-width:1;stroke-linecap:butt;stroke-linejoin:round;stroke:rgb(0%,0%,0%);stroke-opacity:1;stroke-miterlimit:10;" d="M 41.5 35.778125 L 139.5125 35.778125 L 139.5125 160.29375 L 41.5 160.29375 Z M 41.5 35.778125 " transform="matrix(1.25,0,0,1.25,-12.5,-17.5)"/>
<path style="fill-rule:nonzero;fill:rgb(40%,74.901961%,100%);fill-opacity:1;stroke-width:1;stroke-linecap:butt;stroke-linejoin:round;stroke:rgb(0%,0%,0%);stroke-opacity:1;stroke-miterlimit:10;" d="M 176.25 35.778125 L 235.25 35.778125 L 235.25 160.29375 L 176.25 160.29375 Z M 176.25 35.778125 " transform="matrix(1.25,0,0,1.25,-12.5,-17.5)"/>
<path style="fill-rule:nonzero;fill:rgb(40%,74.901961%,100%);fill-opacity:1;stroke-width:1;stroke-linecap:butt;stroke-linejoin:round;stroke:rgb(0%,0%,0%);stroke-opacity:1;stroke-miterlimit:10;" d="M 260.4 37.4125 L 358.40625 37.4125 L 358.40625 97.35625 L 260.4 97.35625 Z M 260.4 37.4125 " transform="matrix(1.25,0,0,1.25,-12.5,-17.5)"/>
<path style="fill-rule:nonzero;fill:rgb(100%,100%,100%);fill-opacity:1;stroke-width:1;stroke-linecap:butt;stroke-linejoin:round;stroke:rgb(0%,0%,0%);stroke-opacity:1;stroke-dasharray:1,3;stroke-miterlimit:10;" d="M 89.5125 35.778125 L 99.5125 35.778125 L 99.5125 160.29375 L 89.5125 160.29375 Z M 89.5125 35.778125 " transform="matrix(1.25,0,0,1.25,-12.5,-17.5)"/>
<path style="fill-rule:nonzero;fill:rgb(100%,100%,100%);fill-opacity:1;stroke-width:1;stroke-linecap:butt;stroke-linejoin:round;stroke:rgb(0%,0%,0%);stroke-opacity:1;stroke-dasharray:1,3;stroke-miterlimit:10;" d="M 41.5 110.34375 L 139.5125 110.34375 L 139.5125 120.33125 L 41.5 120.33125 Z M 41.5 110.34375 " transform="matrix(1.25,0,0,1.25,-12.5,-17.5)"/>
<path style="fill-rule:nonzero;fill:rgb(0%,0%,0%);fill-opacity:1;stroke-width:1;stroke-linecap:butt;stroke-linejoin:round;stroke:rgb(0%,0%,0%);stroke-opacity:1;stroke-miterlimit:10;" d="M 89.5125 110.34375 L 99.5125 110.34375 L 99.5125 120.33125 L 89.5125 120.33125 Z M 89.5125 110.34375 " transform="matrix(1.25,0,0,1.25,-12.5,-17.5)"/>
<path style="fill-rule:nonzero;fill:rgb(100%,100%,100%);fill-opacity:1;stroke-width:1;stroke-linecap:butt;stroke-linejoin:round;stroke:rgb(0%,0%,0%);stroke-opacity:1;stroke-dasharray:1,3;stroke-miterlimit:10;" d="M 176.25 110.34375 L 235.25 110.34375 L 235.25 120.33125 L 176.25 120.33125 Z M 176.25 110.34375 " transform="matrix(1.25,0,0,1.25,-12.5,-17.5)"/>
<path style="fill-rule:nonzero;fill:rgb(100%,100%,100%);fill-opacity:1;stroke-width:1;stroke-linecap:butt;stroke-linejoin:round;stroke:rgb(0%,0%,0%);stroke-opacity:1;stroke-dasharray:1,3;stroke-miterlimit:10;" d="M 308.40625 37.4125 L 318.40625 37.4125 L 318.40625 97.35625 L 308.40625 97.35625 Z M 308.40625 37.4125 " transform="matrix(1.25,0,0,1.25,-12.5,-17.5)"/>
<path style="fill:none;stroke-width:1;stroke-linecap:butt;stroke-linejoin:round;stroke:rgb(0%,0%,0%);stroke-opacity:1;stroke-miterlimit:10;" d="M 176.5 165.2875 L 176.5 167.7875 C 176.5 169.453125 179.83125 170.284375 186.5 170.284375 L 196.5 170.284375 C 203.16875 170.284375 206.5 171.11875 206.5 172.78125 L 206.5 174.03125 C 206.5 174.8625 206.5 174.45 206.5 172.78125 L 206.5 171.534375 C 206.5 170.7 209.83125 170.284375 216.5 170.284375 L 226.5 170.284375 C 233.16875 170.284375 236.5 169.453125 236.5 167.7875 L 236.5 165.2875 " transform="matrix(1.25,0,0,1.25,-12.5,-17.5)"/>
<path style="fill:none;stroke-width:1;stroke-linecap:butt;stroke-linejoin:round;stroke:rgb(0%,0%,0%);stroke-opacity:1;stroke-miterlimit:10;" d="M 361 97.35625 L 363.5 97.35625 C 365.16875 97.35625 366 94.025 366 87.3625 L 366 77.375 C 366 70.715625 366.83125 67.38125 368.5 67.38125 L 369.75 67.38125 C 370.58125 67.38125 370.16875 67.38125 368.5 67.38125 L 367.25 67.38125 C 366.41875 67.38125 366 64.05625 366 57.39375 L 366 47.403125 C 366 40.74375 365.16875 37.4125 363.5 37.4125 L 361 37.4125 " transform="matrix(1.25,0,0,1.25,-12.5,-17.5)"/>
<path style="fill:none;stroke-width:1;stroke-linecap:butt;stroke-linejoin:round;stroke:rgb(0%,0%,0%);stroke-opacity:1;stroke-miterlimit:10;" d="M 42 165.2875 L 42 167.7875 C 42 169.453125 44.70625 170.284375 50.125 170.284375 L 82.628125 170.284375 C 88.046875 170.284375 90.753125 171.11875 90.753125 172.78125 L 90.753125 174.03125 C 90.753125 174.8625 90.753125 174.45 90.753125 172.78125 L 90.753125 171.534375 C 90.753125 170.7 93.465625 170.284375 98.88125 170.284375 L 131.38125 170.284375 C 136.8 170.284375 139.5125 169.453125 139.5125 167.7875 L 139.5125 165.2875 " transform="matrix(1.25,0,0,1.25,-12.5,-17.5)"/>
<path style="fill:none;stroke-width:1;stroke-linecap:butt;stroke-linejoin:round;stroke:rgb(0%,0%,0%);stroke-opacity:1;stroke-miterlimit:10;" d="M 36.721875 160.29375 L 34.221875 160.29375 C 32.55625 160.29375 31.721875 157.328125 31.721875 151.403125 L 31.721875 106.93125 C 31.721875 101 30.890625 98.034375 29.221875 98.034375 L 27.971875 98.034375 C 27.140625 98.034375 27.55625 98.034375 29.221875 98.034375 L 30.471875 98.034375 C 31.30625 98.034375 31.721875 95.06875 31.721875 89.140625 L 31.721875 44.671875 C 31.721875 38.74375 32.55625 35.778125 34.221875 35.778125 L 36.721875 35.778125 " transform="matrix(1.25,0,0,1.25,-12.5,-17.5)"/>
<path style=" stroke:none;fill-rule:nonzero;fill:rgb(0%,0%,0%);fill-opacity:1;" d="M 103.4375 209.101562 C 102.988281 209.804688 102.832031 209.960938 102.636719 209.960938 C 102.539062 209.960938 102.480469 209.882812 102.480469 209.765625 C 102.480469 209.648438 102.539062 209.394531 102.753906 208.769531 L 103.144531 207.597656 C 103.320312 207.070312 103.457031 206.5625 103.457031 206.289062 C 103.457031 205.742188 103.203125 205.429688 102.636719 205.429688 C 102.226562 205.429688 101.816406 205.605469 101.503906 205.898438 C 101.09375 206.289062 100.898438 206.542969 100.136719 207.675781 L 100.820312 205.429688 C 100.097656 205.605469 99.21875 205.722656 98.59375 205.742188 L 98.59375 206.054688 C 99.0625 206.054688 99.199219 206.09375 99.199219 206.308594 C 99.199219 206.445312 99.0625 206.972656 98.691406 208.320312 L 98.066406 210.625 L 99.414062 210.625 C 99.941406 208.671875 100.351562 207.753906 101.054688 206.835938 C 101.269531 206.542969 101.621094 206.230469 101.835938 206.230469 C 101.972656 206.230469 102.109375 206.289062 102.109375 206.464844 C 102.109375 206.503906 102.070312 206.679688 102.03125 206.796875 L 101.40625 208.652344 C 101.230469 209.179688 101.113281 209.765625 101.113281 210.058594 C 101.113281 210.507812 101.40625 210.722656 101.875 210.722656 C 102.558594 210.722656 103.066406 210.351562 103.691406 209.257812 Z M 103.4375 209.101562 "/>
<path style=" stroke:none;fill-rule:nonzero;fill:rgb(0%,0%,0%);fill-opacity:1;" d="M 51.230469 39.355469 L 51.230469 39.628906 L 51.601562 39.667969 C 51.972656 39.707031 52.070312 39.824219 52.070312 40.039062 C 52.070312 40.175781 52.011719 40.527344 51.953125 40.742188 L 50.605469 45.644531 C 50.429688 46.308594 50.234375 46.523438 49.6875 46.601562 L 49.6875 46.875 L 52.988281 46.875 L 52.988281 46.601562 C 52.34375 46.542969 52.1875 46.464844 52.1875 46.113281 C 52.1875 45.957031 52.226562 45.742188 52.382812 45.195312 L 52.96875 43.144531 L 53.300781 43.144531 L 54.511719 46.875 L 56.777344 46.875 L 56.777344 46.601562 C 56.152344 46.542969 55.976562 46.425781 55.800781 45.878906 L 54.84375 43.007812 C 55.371094 42.910156 55.664062 42.832031 55.9375 42.65625 C 56.601562 42.246094 57.011719 41.738281 57.011719 40.957031 C 57.011719 39.882812 56.113281 39.355469 54.453125 39.355469 Z M 53.710938 40.3125 C 53.847656 39.804688 54.042969 39.707031 54.394531 39.707031 C 54.980469 39.707031 55.3125 40.097656 55.3125 40.78125 C 55.3125 41.523438 55 42.207031 54.492188 42.519531 C 54.199219 42.695312 53.769531 42.773438 53.066406 42.792969 Z M 53.710938 40.3125 "/>
<path style=" stroke:none;fill-rule:nonzero;fill:rgb(0%,0%,0%);fill-opacity:1;" d="M 215.644531 39.355469 L 215.644531 39.628906 L 216.015625 39.667969 C 216.347656 39.726562 216.464844 39.824219 216.464844 40.039062 C 216.464844 40.214844 216.445312 40.449219 216.328125 40.878906 L 215 45.664062 C 214.804688 46.40625 214.648438 46.503906 214.0625 46.601562 L 214.0625 46.875 L 217.363281 46.875 L 217.363281 46.601562 C 216.738281 46.5625 216.5625 46.445312 216.5625 46.152344 C 216.5625 46.035156 216.621094 45.683594 216.679688 45.488281 L 217.285156 43.261719 C 217.675781 43.300781 217.890625 43.300781 218.203125 43.300781 C 219.238281 43.300781 220.058594 43.046875 220.605469 42.558594 C 221.035156 42.1875 221.269531 41.679688 221.269531 41.09375 C 221.269531 39.960938 220.46875 39.355469 218.808594 39.355469 Z M 218.085938 40.3125 C 218.222656 39.804688 218.28125 39.707031 218.691406 39.707031 C 219.277344 39.707031 219.628906 40.097656 219.628906 40.683594 C 219.628906 41.171875 219.511719 41.816406 219.257812 42.226562 C 218.945312 42.714844 218.574219 42.910156 217.871094 42.910156 C 217.734375 42.910156 217.597656 42.910156 217.402344 42.890625 Z M 218.085938 40.3125 "/>
<path style=" stroke:none;fill-rule:nonzero;fill:rgb(0%,0%,0%);fill-opacity:1;" d="M 325.933594 46.164062 L 323.960938 47.824219 L 324.117188 48.097656 C 324.742188 47.84375 325.035156 47.785156 325.40625 47.785156 C 325.738281 47.785156 325.992188 47.84375 326.578125 48.019531 C 327.261719 48.234375 327.632812 48.3125 328.101562 48.3125 C 329.332031 48.3125 330.132812 47.921875 331.011719 46.632812 L 330.777344 46.417969 C 330.132812 47.101562 329.722656 47.296875 329.039062 47.296875 C 328.726562 47.296875 328.492188 47.257812 328.082031 47.121094 C 327.261719 46.828125 326.480469 46.75 325.992188 46.730469 L 325.992188 46.691406 L 326.480469 46.164062 C 328.0625 46.085938 328.707031 45.773438 329.683594 44.835938 C 330.796875 43.761719 331.421875 42.277344 331.421875 40.890625 C 331.421875 39.367188 330.269531 38.253906 328.707031 38.253906 C 327.730469 38.253906 326.773438 38.644531 325.972656 39.308594 C 324.78125 40.304688 323.960938 41.90625 323.960938 43.585938 C 323.960938 44.835938 324.644531 45.636719 325.777344 46.046875 C 325.855469 46.085938 325.894531 46.085938 325.953125 46.105469 Z M 329.800781 39.992188 C 329.800781 41.183594 329.253906 43.058594 328.628906 44.230469 C 328.121094 45.128906 327.476562 45.773438 326.714844 45.773438 C 326.011719 45.773438 325.5625 45.265625 325.5625 44.445312 C 325.5625 43.195312 326.167969 41.125 326.851562 39.992188 C 327.378906 39.074219 327.964844 38.644531 328.667969 38.644531 C 329.332031 38.644531 329.800781 39.191406 329.800781 39.992188 Z M 329.800781 39.992188 "/>
<path style=" stroke:none;fill-rule:nonzero;fill:rgb(0%,0%,0%);fill-opacity:1;" d="M 336.222656 37.277344 L 336.164062 36.007812 L 331.945312 36.007812 L 331.90625 37.277344 L 332.082031 37.277344 C 332.21875 36.457031 332.433594 36.320312 333.214844 36.320312 L 333.683594 36.320312 L 333.683594 40.050781 C 333.683594 40.714844 333.585938 40.792969 332.960938 40.832031 L 332.960938 40.96875 L 335.167969 40.96875 L 335.167969 40.832031 C 334.542969 40.792969 334.445312 40.714844 334.445312 40.128906 L 334.445312 36.320312 L 334.875 36.320312 C 335.675781 36.320312 335.871094 36.457031 336.027344 37.277344 Z M 336.222656 37.277344 "/>
<path style=" stroke:none;fill-rule:nonzero;fill:rgb(0%,0%,0%);fill-opacity:1;" d="M 108.574219 11.191406 C 108.574219 10.78125 108.222656 10.429688 107.792969 10.429688 C 107.421875 10.429688 107.070312 10.78125 107.070312 11.152344 C 107.070312 11.601562 107.382812 11.933594 107.8125 11.933594 C 108.242188 11.933594 108.574219 11.601562 108.574219 11.191406 Z M 108.046875 16.523438 L 107.890625 16.757812 C 107.597656 17.1875 107.34375 17.441406 107.167969 17.441406 C 107.089844 17.441406 107.011719 17.402344 107.011719 17.265625 C 107.011719 17.148438 107.050781 16.875 107.109375 16.679688 L 108.125 12.929688 C 107.519531 13.066406 106.71875 13.183594 105.859375 13.242188 L 105.859375 13.554688 L 106.015625 13.554688 C 106.347656 13.554688 106.523438 13.652344 106.523438 13.867188 C 106.523438 13.964844 106.503906 14.101562 106.425781 14.375 L 105.820312 16.660156 C 105.703125 17.070312 105.644531 17.363281 105.644531 17.519531 C 105.644531 18.007812 105.957031 18.222656 106.40625 18.222656 C 107.089844 18.222656 107.558594 17.890625 108.300781 16.679688 Z M 108.046875 16.523438 "/>
<path style=" stroke:none;fill-rule:nonzero;fill:rgb(0%,0%,0%);fill-opacity:1;" d="M 172.792969 127.527344 C 172.402344 128.132812 172.1875 128.367188 171.992188 128.367188 C 171.855469 128.367188 171.835938 128.25 171.835938 128.132812 C 171.835938 127.996094 171.972656 127.488281 172.109375 126.980469 L 172.988281 123.972656 L 171.660156 123.972656 C 171.054688 126.238281 170.722656 126.84375 170.058594 127.703125 C 169.726562 128.132812 169.472656 128.328125 169.277344 128.328125 C 169.121094 128.328125 169.003906 128.230469 169.003906 128.035156 C 169.003906 127.878906 169.023438 127.742188 169.179688 127.234375 L 170.234375 123.835938 C 169.550781 123.972656 168.4375 124.128906 167.871094 124.148438 L 167.871094 124.460938 C 168.398438 124.480469 168.515625 124.597656 168.515625 124.773438 C 168.515625 124.949219 168.417969 125.28125 168.339844 125.613281 L 167.910156 127.058594 C 167.753906 127.605469 167.675781 127.957031 167.675781 128.25 C 167.675781 128.835938 167.988281 129.128906 168.554688 129.128906 C 169.277344 129.128906 169.707031 128.777344 170.78125 127.214844 C 170.585938 127.839844 170.488281 128.132812 170.488281 128.464844 C 170.488281 128.914062 170.761719 129.128906 171.25 129.128906 C 171.933594 129.128906 172.460938 128.679688 173.046875 127.683594 Z M 172.792969 127.527344 "/>
<path style=" stroke:none;fill-rule:nonzero;fill:rgb(0%,0%,0%);fill-opacity:1;" d="M 381.070312 11.191406 C 381.070312 10.78125 380.71875 10.429688 380.289062 10.429688 C 379.917969 10.429688 379.566406 10.78125 379.566406 11.152344 C 379.566406 11.601562 379.878906 11.933594 380.308594 11.933594 C 380.738281 11.933594 381.070312 11.601562 381.070312 11.191406 Z M 380.542969 16.523438 L 380.386719 16.757812 C 380.09375 17.1875 379.839844 17.441406 379.664062 17.441406 C 379.585938 17.441406 379.507812 17.402344 379.507812 17.265625 C 379.507812 17.148438 379.546875 16.875 379.605469 16.679688 L 380.621094 12.929688 C 380.015625 13.066406 379.214844 13.183594 378.355469 13.242188 L 378.355469 13.554688 L 378.511719 13.554688 C 378.84375 13.554688 379.019531 13.652344 379.019531 13.867188 C 379.019531 13.964844 379 14.101562 378.921875 14.375 L 378.316406 16.660156 C 378.199219 17.070312 378.140625 17.363281 378.140625 17.519531 C 378.140625 18.007812 378.453125 18.222656 378.902344 18.222656 C 379.585938 18.222656 380.054688 17.890625 380.796875 16.679688 Z M 380.542969 16.523438 "/>
<path style=" stroke:none;fill-rule:nonzero;fill:rgb(0%,0%,0%);fill-opacity:1;" d="M 292.664062 128.152344 C 292.273438 128.757812 292.058594 128.992188 291.863281 128.992188 C 291.726562 128.992188 291.707031 128.875 291.707031 128.757812 C 291.707031 128.621094 291.84375 128.113281 291.980469 127.605469 L 292.859375 124.597656 L 291.53125 124.597656 C 290.925781 126.863281 290.59375 127.46875 289.929688 128.328125 C 289.597656 128.757812 289.34375 128.953125 289.148438 128.953125 C 288.992188 128.953125 288.875 128.855469 288.875 128.660156 C 288.875 128.503906 288.894531 128.367188 289.050781 127.859375 L 290.105469 124.460938 C 289.421875 124.597656 288.308594 124.753906 287.742188 124.773438 L 287.742188 125.085938 C 288.269531 125.105469 288.386719 125.222656 288.386719 125.398438 C 288.386719 125.574219 288.289062 125.90625 288.210938 126.238281 L 287.78125 127.683594 C 287.625 128.230469 287.546875 128.582031 287.546875 128.875 C 287.546875 129.460938 287.859375 129.753906 288.425781 129.753906 C 289.148438 129.753906 289.578125 129.402344 290.652344 127.839844 C 290.457031 128.464844 290.359375 128.757812 290.359375 129.089844 C 290.359375 129.539062 290.632812 129.753906 291.121094 129.753906 C 291.804688 129.753906 292.332031 129.304688 292.917969 128.308594 Z M 292.664062 128.152344 "/>
<path style=" stroke:none;fill-rule:nonzero;fill:rgb(0%,0%,0%);fill-opacity:1;" d="M 14.832031 105.976562 C 14.773438 106.035156 14.734375 106.113281 14.695312 106.191406 C 14.441406 106.601562 14.1875 106.835938 14.03125 106.835938 C 13.933594 106.835938 13.855469 106.777344 13.855469 106.640625 C 13.855469 106.425781 13.894531 106.347656 14.089844 105.761719 L 14.597656 104.335938 C 14.773438 103.847656 14.871094 103.398438 14.871094 103.105469 C 14.871094 102.636719 14.539062 102.304688 13.992188 102.304688 C 13.191406 102.304688 12.683594 102.753906 11.765625 104.238281 C 12 103.652344 12.058594 103.378906 12.058594 103.046875 C 12.058594 102.578125 11.785156 102.304688 11.296875 102.304688 C 10.847656 102.304688 10.378906 102.597656 10.027344 102.949219 C 9.714844 103.261719 9.402344 103.710938 8.855469 104.550781 L 8.835938 104.550781 L 9.558594 102.304688 C 8.835938 102.480469 8.582031 102.519531 7.292969 102.617188 L 7.292969 102.929688 L 7.507812 102.929688 C 7.800781 102.929688 7.9375 103.027344 7.9375 103.203125 C 7.9375 103.378906 7.839844 103.789062 7.527344 104.882812 L 6.785156 107.5 L 8.152344 107.5 C 8.738281 105.371094 9.148438 104.414062 9.792969 103.652344 C 10.046875 103.359375 10.359375 103.125 10.535156 103.125 C 10.652344 103.125 10.730469 103.183594 10.730469 103.378906 C 10.730469 103.554688 10.59375 104.023438 10.222656 105.175781 L 9.5 107.5 L 10.847656 107.5 C 11.492188 105.332031 11.570312 105.136719 11.980469 104.433594 C 12.449219 103.59375 12.898438 103.125 13.25 103.125 C 13.367188 103.125 13.503906 103.242188 13.503906 103.359375 C 13.503906 103.417969 13.464844 103.554688 13.425781 103.691406 L 12.917969 105.15625 C 12.683594 105.878906 12.507812 106.523438 12.507812 106.855469 C 12.507812 107.382812 12.78125 107.597656 13.269531 107.597656 C 13.953125 107.597656 14.480469 107.226562 15.066406 106.132812 Z M 14.832031 105.976562 "/>
<path style=" stroke:none;fill-rule:nonzero;fill:rgb(0%,0%,0%);fill-opacity:1;" d="M 248.535156 206.269531 L 245.957031 206.269531 L 245.957031 206.582031 C 246.445312 206.601562 246.582031 206.660156 246.582031 206.855469 C 246.582031 207.1875 246.09375 207.65625 244.53125 208.90625 L 246.074219 203.144531 C 245.117188 203.359375 244.433594 203.457031 243.457031 203.515625 L 243.457031 203.847656 L 243.886719 203.847656 C 244.140625 203.847656 244.257812 203.925781 244.257812 204.277344 C 244.257812 204.394531 244.257812 204.492188 244.179688 204.804688 L 242.207031 211.875 L 243.730469 211.875 L 244.355469 209.53125 L 244.84375 209.179688 C 245.253906 211.367188 245.605469 211.972656 246.386719 211.972656 C 247.011719 211.972656 247.558594 211.621094 248.105469 210.429688 L 247.832031 210.292969 C 247.5 210.878906 247.265625 211.09375 247.03125 211.09375 C 246.757812 211.09375 246.542969 210.683594 246.054688 208.242188 L 246.855469 207.519531 C 247.695312 206.757812 247.96875 206.640625 248.535156 206.582031 Z M 248.535156 206.269531 "/>
<path style=" stroke:none;fill-rule:nonzero;fill:rgb(0%,0%,0%);fill-opacity:1;" d="M 461.886719 63.066406 L 459.582031 63.066406 L 459.582031 63.359375 C 460.011719 63.378906 460.128906 63.4375 460.128906 63.613281 C 460.128906 63.90625 459.699219 64.335938 458.273438 65.449219 L 459.679688 60.253906 C 458.800781 60.449219 458.195312 60.546875 457.316406 60.605469 L 457.316406 60.898438 L 457.707031 60.898438 C 457.921875 60.898438 458.039062 60.976562 458.039062 61.289062 C 458.039062 61.40625 458.039062 61.484375 457.960938 61.757812 L 456.203125 68.125 L 457.570312 68.125 L 458.136719 66.015625 L 458.566406 65.703125 C 458.9375 67.675781 459.25 68.222656 459.953125 68.222656 C 460.519531 68.222656 461.007812 67.890625 461.515625 66.816406 L 461.261719 66.699219 C 460.949219 67.226562 460.753906 67.421875 460.539062 67.421875 C 460.285156 67.421875 460.089844 67.050781 459.660156 64.863281 L 460.363281 64.21875 C 461.144531 63.515625 461.378906 63.417969 461.886719 63.359375 Z M 461.886719 63.066406 "/>
<path style=" stroke:none;fill-rule:nonzero;fill:rgb(0%,0%,0%);fill-opacity:1;" d="M 176.59375 106.492188 C 176.640625 106.128906 176.71875 105.769531 176.828125 105.417969 C 176.945312 105.066406 177.105469 104.753906 177.316406 104.480469 C 177.519531 104.195312 177.773438 103.964844 178.078125 103.796875 C 178.375 103.613281 178.742188 103.523438 179.171875 103.523438 C 179.609375 103.523438 180.070312 103.601562 180.539062 103.757812 C 181.007812 103.902344 181.480469 104.0625 181.964844 104.246094 C 182.441406 104.429688 182.910156 104.589844 183.371094 104.734375 C 183.824219 104.878906 184.253906 104.949219 184.660156 104.949219 C 185.097656 104.949219 185.441406 104.804688 185.675781 104.519531 C 185.910156 104.21875 186.066406 103.867188 186.144531 103.464844 L 187.160156 103.464844 C 187.105469 103.84375 187.023438 104.207031 186.90625 104.558594 C 186.796875 104.898438 186.640625 105.203125 186.4375 105.476562 C 186.226562 105.75 185.96875 105.972656 185.65625 106.140625 C 185.351562 106.296875 184.992188 106.375 184.5625 106.375 C 184.140625 106.375 183.6875 106.304688 183.195312 106.160156 C 182.695312 106.003906 182.203125 105.839844 181.710938 105.671875 C 181.210938 105.488281 180.742188 105.320312 180.304688 105.164062 C 179.859375 105.007812 179.46875 104.929688 179.132812 104.929688 C 178.703125 104.929688 178.355469 105.09375 178.097656 105.417969 C 177.832031 105.742188 177.675781 106.101562 177.628906 106.492188 Z M 176.59375 102.898438 C 176.640625 102.535156 176.71875 102.175781 176.828125 101.824219 C 176.945312 101.472656 177.105469 101.160156 177.316406 100.886719 C 177.519531 100.601562 177.773438 100.371094 178.078125 100.203125 C 178.375 100.019531 178.742188 99.929688 179.171875 99.929688 C 179.609375 99.929688 180.070312 100.007812 180.539062 100.164062 C 181.007812 100.308594 181.480469 100.46875 181.964844 100.652344 C 182.441406 100.820312 182.910156 100.984375 183.371094 101.140625 C 183.824219 101.285156 184.253906 101.355469 184.660156 101.355469 C 185.097656 101.355469 185.441406 101.210938 185.675781 100.925781 C 185.910156 100.625 186.066406 100.273438 186.144531 99.871094 L 187.160156 99.871094 C 187.105469 100.25 187.023438 100.613281 186.90625 100.964844 C 186.796875 101.304688 186.640625 101.609375 186.4375 101.882812 C 186.226562 102.15625 185.96875 102.371094 185.65625 102.527344 C 185.351562 102.683594 184.992188 102.761719 184.5625 102.761719 C 184.140625 102.761719 183.6875 102.691406 183.195312 102.546875 C 182.695312 102.402344 182.203125 102.242188 181.710938 102.058594 C 181.210938 101.875 180.742188 101.714844 180.304688 101.570312 C 179.859375 101.414062 179.46875 101.335938 179.132812 101.335938 C 178.703125 101.335938 178.355469 101.5 178.097656 101.824219 C 177.832031 102.148438 177.675781 102.507812 177.628906 102.898438 Z M 176.59375 102.898438 "/>
<path style=" stroke:none;fill-rule:nonzero;fill:rgb(0%,0%,0%);fill-opacity:1;" d="M 290.800781 74.179688 L 291.757812 75.136719 L 295.390625 71.503906 L 299.023438 75.136719 L 299.980469 74.179688 L 296.347656 70.546875 L 299.960938 66.953125 L 299.003906 65.976562 L 295.390625 69.589844 L 291.777344 65.976562 L 290.820312 66.953125 L 294.433594 70.546875 Z M 290.800781 74.179688 "/>
</g>
</svg>
